<svg width="55" height="60" viewBox="0 0 55 60" fill="none" xmlns="http://www.w3.org/2000/svg">
<path d="M26.8901 19.0642C15.8684 19.3621 -2.89815 29.1923 0.378568 43.4907C3.65528 57.7891 51.6145 55.406 54.5933 42.8949C57.5721 30.3838 37.9117 18.7663 26.8901 19.0642Z" fill="#234757" fill-opacity="0.44"/>
<path d="M44.9916 38.9053C56.6091 27.2878 56.9069 12.9896 50.9492 7.03185C44.9916 1.07416 30.0975 9.41485 22.9482 14.181C15.799 18.9472 5.07528 28.1815 11.9265 38.9053C18.7778 49.6292 33.3741 50.5229 44.9916 38.9053Z" fill="#234757" fill-opacity="0.44"/>
<path d="M40.5929 46.1719C46.5506 38.7248 44.3849 26.8095 32.7675 19.6603C21.15 12.5111 12.2942 9.23421 5.14492 14.0004C-2.00432 18.7666 1.27234 37.2354 12.5919 52.7253C23.9115 68.2153 34.6352 53.619 40.5929 46.1719Z" fill="#234757" fill-opacity="0.44"/>
<path d="M38.5488 42.0014C46.8895 33.9586 46.2937 28.0009 44.8044 18.7666C43.315 9.53219 37.0594 8.58465e-06 26.3356 0C15.6118 -8.58464e-06 6.67524 21.1497 11.4414 35.448C16.2075 49.7464 30.208 50.0442 38.5488 42.0014Z" fill="#234757" fill-opacity="0.44"/>
</svg>
